<svg width="100" height="100" viewBox="0 0 100 100" fill="none" xmlns="http://www.w3.org/2000/svg">
<rect width="100" height="100" fill="black"/>
<path d="M17.288 72.464C15.056 72.464 13.064 72.14 11.312 71.492C9.56 70.844 8.18 69.896 7.172 68.648C6.164 67.424 5.66 65.936 5.66 64.184C5.66 63.512 5.744 62.804 5.912 62.06C6.056 61.34 6.296 60.572 6.632 59.756C6.968 58.964 7.472 58.22 8.144 57.524C8.816 56.828 9.5 56.264 10.196 55.832C10.892 55.4 11.432 55.184 11.816 55.184H11.924C12.14 55.184 12.248 55.22 12.248 55.292C12.248 55.34 12.2 55.4 12.104 55.472C12.008 55.544 11.9 55.604 11.78 55.652C11.372 55.82 10.856 56.18 10.232 56.732C9.608 57.26 9.008 57.932 8.432 58.748C7.88 59.54 7.46 60.416 7.172 61.376C6.956 62.168 6.848 62.924 6.848 63.644C6.848 64.94 7.172 66.068 7.82 67.028C8.468 67.988 9.32 68.78 10.376 69.404C11.432 70.052 12.596 70.532 13.868 70.844C15.14 71.156 16.388 71.312 17.612 71.312C18.092 71.312 18.56 71.288 19.016 71.24C19.472 71.216 19.904 71.156 20.312 71.06C22.424 70.58 24.356 69.776 26.108 68.648C27.884 67.544 29.504 66.224 30.968 64.688C32.432 63.152 33.752 61.496 34.928 59.72C36.128 57.968 37.196 56.192 38.132 54.392C39.068 52.592 39.908 50.876 40.652 49.244C41.396 47.612 42.044 46.172 42.596 44.924C43.46 43.052 44.276 41.372 45.044 39.884C45.836 38.372 46.52 37.1 47.096 36.068C47.696 35.036 48.128 34.316 48.392 33.908C47.216 34.1 45.908 34.412 44.468 34.844C43.052 35.252 41.612 35.792 40.148 36.464C38.708 37.136 37.352 37.928 36.08 38.84C34.832 39.752 33.776 40.784 32.912 41.936C32.072 43.088 31.532 44.372 31.292 45.788C31.268 46.004 31.244 46.196 31.22 46.364C31.22 46.532 31.22 46.712 31.22 46.904C31.22 47.96 31.46 48.836 31.94 49.532C32.42 50.204 33.104 50.54 33.992 50.54C34.376 50.54 34.856 50.444 35.432 50.252C36.392 49.916 37.124 49.448 37.628 48.848C38.156 48.248 38.528 47.612 38.744 46.94C38.96 46.268 39.068 45.68 39.068 45.176C39.068 44.576 38.972 44.18 38.78 43.988C38.636 43.916 38.564 43.82 38.564 43.7C38.564 43.484 38.696 43.376 38.96 43.376C39.176 43.376 39.368 43.484 39.536 43.7C39.752 44.228 39.86 44.78 39.86 45.356C39.86 46.148 39.656 46.94 39.248 47.732C38.864 48.5 38.336 49.184 37.664 49.784C37.016 50.384 36.272 50.828 35.432 51.116C34.784 51.356 34.112 51.476 33.416 51.476C32.096 51.476 30.992 51.044 30.104 50.18C29.216 49.292 28.772 48.116 28.772 46.652C28.772 46.292 28.808 45.92 28.88 45.536C29.144 43.856 29.792 42.38 30.824 41.108C31.856 39.812 33.128 38.696 34.64 37.76C36.152 36.8 37.76 35.996 39.464 35.348C41.168 34.7 42.848 34.184 44.504 33.8C46.184 33.392 47.684 33.104 49.004 32.936C49.124 32.768 49.34 32.48 49.652 32.072C49.964 31.664 50.324 31.256 50.732 30.848C51.14 30.44 51.548 30.176 51.956 30.056C52.22 29.984 52.472 29.948 52.712 29.948C53.072 29.948 53.372 30.044 53.612 30.236C53.852 30.404 53.972 30.668 53.972 31.028C53.972 31.772 53.648 32.312 53 32.648C52.376 32.984 51.716 33.26 51.02 33.476C50.804 33.476 50.528 33.524 50.192 33.62C49.856 33.716 49.616 33.764 49.472 33.764C48.296 35.78 47.3 37.856 46.484 39.992C45.692 42.128 44.912 44.348 44.144 46.652C43.376 48.932 42.476 51.284 41.444 53.708C40.412 56.108 39.068 58.592 37.412 61.16C36.356 62.816 35.12 64.292 33.704 65.588C32.288 66.884 30.8 67.988 29.24 68.9C27.704 69.836 26.204 70.58 24.74 71.132C23.276 71.684 21.944 72.044 20.744 72.212C20.144 72.308 19.556 72.368 18.98 72.392C18.404 72.44 17.84 72.464 17.288 72.464ZM50.12 32.864C51.104 32.696 51.764 32.492 52.1 32.252C52.436 31.988 52.604 31.748 52.604 31.532C52.604 31.412 52.556 31.316 52.46 31.244C52.388 31.148 52.316 31.1 52.244 31.1C52.1 31.028 51.896 31.1 51.632 31.316C51.392 31.532 51.128 31.796 50.84 32.108C50.576 32.396 50.336 32.648 50.12 32.864ZM48.9205 52.016C48.7765 52.04 48.6325 51.932 48.4885 51.692C48.3685 51.428 48.3085 51.176 48.3085 50.936C48.3085 50.744 48.3565 50.588 48.4525 50.468C48.5485 50.324 48.7045 50.252 48.9205 50.252C49.5445 50.252 50.5765 50.264 52.0165 50.288C53.4565 50.312 55.0765 50.348 56.8765 50.396C57.1165 50.396 57.2965 50.468 57.4165 50.612C57.5605 50.756 57.6325 50.888 57.6325 51.008C57.6325 51.248 57.4285 51.368 57.0205 51.368C55.3405 51.368 53.8405 51.452 52.5205 51.62C51.2005 51.764 50.0005 51.896 48.9205 52.016ZM70.7789 62.312C68.4269 62.312 66.2669 61.964 64.2989 61.268C62.3549 60.572 60.7829 59.552 59.5829 58.208C58.3829 56.84 57.7229 55.16 57.6029 53.168C57.5549 52.352 57.6869 51.452 57.9989 50.468C58.3109 49.484 58.7429 48.512 59.2949 47.552C59.8709 46.568 60.5429 45.692 61.3109 44.924C62.1029 44.132 62.9429 43.532 63.8309 43.124C63.9029 43.076 64.0109 43.04 64.1549 43.016C64.3229 42.992 64.4429 42.98 64.5149 42.98C64.6589 42.98 64.7309 43.016 64.7309 43.088C64.7309 43.208 64.5509 43.4 64.1909 43.664C63.1829 44.456 62.3549 45.368 61.7069 46.4C61.0349 47.432 60.5309 48.536 60.1949 49.712C59.8589 50.888 59.6909 52.076 59.6909 53.276C59.6909 54.692 59.9909 55.916 60.5909 56.948C61.2149 57.956 62.0429 58.784 63.0749 59.432C64.1069 60.104 65.2829 60.596 66.6029 60.908C67.9229 61.22 69.3029 61.376 70.7429 61.376C72.3509 61.376 73.9349 61.196 75.4949 60.836C77.0789 60.476 78.5189 59.96 79.8149 59.288C81.8069 58.232 83.3789 56.924 84.5309 55.364C85.7069 53.804 86.2949 52.256 86.2949 50.72C86.2949 49.904 86.1149 49.124 85.7549 48.38C85.4189 47.636 84.8669 46.964 84.0989 46.364C83.5229 45.908 82.8149 45.476 81.9749 45.068C81.1589 44.66 80.2829 44.264 79.3469 43.88C78.4349 43.496 77.5349 43.112 76.6469 42.728C75.7589 42.32 74.9789 41.888 74.3069 41.432C73.3469 40.784 72.6389 40.088 72.1829 39.344C71.7509 38.6 71.5349 37.856 71.5349 37.112C71.5349 36.224 71.7869 35.36 72.2909 34.52C72.8189 33.68 73.5269 32.924 74.4149 32.252C75.3269 31.556 76.3469 31.016 77.4749 30.632C78.4589 30.296 79.5269 30.032 80.6789 29.84C81.8549 29.648 83.0069 29.552 84.1349 29.552C85.0709 29.552 85.9589 29.624 86.7989 29.768C87.6629 29.888 88.4189 30.116 89.0669 30.452C89.8829 30.836 90.5069 31.352 90.9389 32C91.3709 32.624 91.5869 33.284 91.5869 33.98C91.5869 34.94 91.1549 35.78 90.2909 36.5C89.9789 36.74 89.6309 36.968 89.2469 37.184C88.8629 37.376 88.4069 37.544 87.8789 37.688C87.7829 37.712 87.6749 37.724 87.5549 37.724C87.2669 37.724 87.1229 37.64 87.1229 37.472C87.1229 37.376 87.1949 37.28 87.3389 37.184C87.5069 37.064 87.7469 36.992 88.0589 36.968C88.7789 36.872 89.3189 36.596 89.6789 36.14C90.0629 35.684 90.2549 35.156 90.2549 34.556C90.2549 33.932 90.0389 33.32 89.6069 32.72C89.1989 32.096 88.5629 31.58 87.6989 31.172C86.8349 30.74 85.7309 30.524 84.3869 30.524C83.6189 30.524 82.7669 30.608 81.8309 30.776C80.9189 30.944 79.9229 31.22 78.8429 31.604C77.5229 32.06 76.4189 32.732 75.5309 33.62C74.6669 34.508 74.2349 35.456 74.2349 36.464C74.2349 37.088 74.4389 37.724 74.8469 38.372C75.2789 38.996 75.9629 39.596 76.8989 40.172C77.6909 40.652 78.5909 41.132 79.5989 41.612C80.6069 42.068 81.6269 42.536 82.6589 43.016C83.6909 43.472 84.6269 43.964 85.4669 44.492C86.7869 45.308 87.7349 46.184 88.3109 47.12C88.8869 48.056 89.1749 49.016 89.1749 50C89.1749 51.152 88.8269 52.316 88.1309 53.492C87.4589 54.644 86.5709 55.736 85.4669 56.768C84.3629 57.776 83.1509 58.676 81.8309 59.468C80.2949 60.38 78.5549 61.076 76.6109 61.556C74.6909 62.06 72.7469 62.312 70.7789 62.312Z" fill="white"/>
</svg>
